<svg width="96" height="11" viewBox="0 0 96 11" fill="none" xmlns="http://www.w3.org/2000/svg">
<path d="M10.7573 8.63491H12.6185V6.16389C12.6185 4.67901 13.4923 4.25961 14.3094 4.25961C14.457 4.25961 14.5931 4.27095 14.7861 4.29362V2.7294C14.6045 2.68406 14.457 2.67272 14.3321 2.67272C13.4356 2.67272 12.8795 3.27347 12.6525 4.20294H12.6185V2.74073H10.7573V8.63491Z" fill="white" fill-opacity="0.54"/>
<path d="M17.9779 8.74826C18.8517 8.74826 19.4532 8.28352 19.6121 7.84146V8.63491H21.4732V0.700439H19.6121V3.53418C19.4532 3.09211 18.8517 2.62738 17.9779 2.62738C16.7749 2.62738 15.4131 3.51151 15.4131 5.68782C15.4131 7.87546 16.7749 8.74826 17.9779 8.74826ZM17.1608 5.68782C17.1608 4.645 17.7849 4.16893 18.4431 4.16893C19.09 4.16893 19.6915 4.645 19.6915 5.68782C19.6915 6.73063 19.09 7.2067 18.4431 7.2067C17.7849 7.2067 17.1608 6.73063 17.1608 5.68782Z" fill="white" fill-opacity="0.54"/>
<path d="M25.6989 8.74826C27.1515 8.74826 28.2069 8.00015 28.4793 6.63995H26.8451C26.7429 7.02534 26.4933 7.34272 25.7329 7.34272C25.0066 7.34272 24.5527 7.01401 24.4505 6.15255H28.5247C28.5474 6.01653 28.5587 5.90318 28.5587 5.68782C28.5587 3.38682 27.2196 2.62738 25.6989 2.62738C24.1214 2.62738 22.6915 3.46617 22.6915 5.66515C22.6915 7.95481 24.2349 8.74826 25.6989 8.74826ZM24.4619 5.07573C24.5754 4.39563 24.9612 4.03292 25.6535 4.03292C26.5046 4.03292 26.7656 4.56566 26.7997 5.07573H24.4619Z" fill="white" fill-opacity="0.54"/>
<path d="M29.7657 8.63491H31.6269V6.16389C31.6269 4.67901 32.5008 4.25961 33.3178 4.25961C33.4654 4.25961 33.6016 4.27095 33.7945 4.29362V2.7294C33.6129 2.68406 33.4654 2.67272 33.3405 2.67272C32.444 2.67272 31.8879 3.27347 31.661 4.20294H31.6269V2.74073H29.7657V8.63491Z" fill="white" fill-opacity="0.54"/>
<path d="M34.8828 8.63491H36.744V0.700439H34.8828V8.63491Z" fill="white" fill-opacity="0.54"/>
<path d="M38.3642 9.36034V10.9246C40.1913 11.1173 40.9516 10.5052 41.746 8.5669L44.1292 2.74073H42.2227L40.9289 6.2659L39.6692 2.74073H37.774L39.9189 8.03415C40.0664 8.38554 40.0778 8.5669 39.953 8.85027C39.8508 9.07697 39.5898 9.51903 38.3642 9.36034Z" fill="white" fill-opacity="0.54"/>
<path d="M48.1726 8.63491H50.0678V3.8969H50.1132L52.9731 8.63491H55.0158V0.700439H53.1092V5.56313H53.0638L50.1359 0.700439H48.1726V8.63491Z" fill="white" fill-opacity="0.54"/>
<path d="M59.2273 8.74826C60.6799 8.74826 61.7353 8.00015 62.0077 6.63995H60.3735C60.2713 7.02534 60.0217 7.34272 59.2613 7.34272C58.535 7.34272 58.0811 7.01401 57.9789 6.15255H62.0531C62.0758 6.01653 62.0871 5.90318 62.0871 5.68782C62.0871 3.38682 60.748 2.62738 59.2273 2.62738C57.6498 2.62738 56.2199 3.46617 56.2199 5.66515C56.2199 7.95481 57.7633 8.74826 59.2273 8.74826ZM57.9903 5.07573C58.1038 4.39563 58.4896 4.03292 59.1819 4.03292C60.033 4.03292 60.294 4.56566 60.3281 5.07573H57.9903Z" fill="white" fill-opacity="0.54"/>
<path d="M65.9951 8.71425C66.3469 8.71425 66.6874 8.66891 66.9711 8.58957V7.21804C66.7101 7.24071 66.6079 7.24071 66.4831 7.24071C65.8816 7.24071 65.7681 6.91199 65.7681 6.50394V4.18027H66.9257V2.74073H65.7681V1.19918H63.907V2.74073H62.8969V4.18027H63.907V6.76464C63.907 8.13617 64.7241 8.71425 65.9951 8.71425Z" fill="white" fill-opacity="0.54"/>
<path d="M69.3603 8.63491H71.4598L72.4017 5.21175L73.3437 8.63491H75.4318L76.9752 2.74073H75.2162L74.2969 6.84398H74.2515L73.1961 2.74073H71.596L70.5406 6.84398H70.4952L69.5759 2.74073H67.8283L69.3603 8.63491Z" fill="white" fill-opacity="0.54"/>
<path d="M80.5543 8.74826C82.041 8.74826 83.5504 7.85279 83.5504 5.68782C83.5504 3.52284 82.041 2.62738 80.5543 2.62738C79.0563 2.62738 77.5583 3.52284 77.5583 5.68782C77.5583 7.85279 79.0563 8.74826 80.5543 8.74826ZM79.2947 5.68782C79.2947 4.645 79.828 4.16893 80.5543 4.16893C81.2693 4.16893 81.8027 4.645 81.8027 5.68782C81.8027 6.73063 81.2693 7.2067 80.5543 7.2067C79.828 7.2067 79.2947 6.73063 79.2947 5.68782Z" fill="white" fill-opacity="0.54"/>
<path d="M84.7545 8.63491H86.6156V6.16389C86.6156 4.67901 87.4895 4.25961 88.3066 4.25961C88.4541 4.25961 88.5903 4.27095 88.7832 4.29362V2.7294C88.6016 2.68406 88.4541 2.67272 88.3293 2.67272C87.4327 2.67272 86.8767 3.27347 86.6497 4.20294H86.6156V2.74073H84.7545V8.63491Z" fill="white" fill-opacity="0.54"/>
<path d="M89.8715 8.63491H91.7327V6.93466L92.198 6.43593L93.957 8.63491H95.9998L93.3328 5.23442L95.6933 2.74073H93.662L91.7327 4.93971V0.700439H89.8715V8.63491Z" fill="white" fill-opacity="0.54"/>
<path fill-rule="evenodd" clip-rule="evenodd" d="M7.63212 1.04255C7.67824 1.0799 7.65128 1.15279 7.59193 1.15279L1.77884 1.15279C1.71949 1.15279 1.69253 1.0799 1.73865 1.04255C2.54355 0.390574 3.56886 0 4.68538 0C5.80191 0 6.82721 0.390574 7.63212 1.04255Z" fill="white" fill-opacity="0.54"/>
<path fill-rule="evenodd" clip-rule="evenodd" d="M2.86194 5.95967C2.82842 5.91187 2.77445 5.88184 2.71607 5.88184L0.265008 5.88184C0.208847 5.88184 0.167913 5.93512 0.183527 5.98907C0.748651 7.94153 2.54981 9.36907 4.68438 9.36907C6.81896 9.36907 8.62011 7.94153 9.18524 5.98907C9.20085 5.93512 9.15992 5.88184 9.10376 5.88184L6.65274 5.88184C6.59436 5.88184 6.54039 5.91187 6.50687 5.95967C6.10456 6.53334 5.43828 6.90836 4.6844 6.90836C3.93053 6.90836 3.26425 6.53334 2.86194 5.95967Z" fill="white" fill-opacity="0.54"/>
<path fill-rule="evenodd" clip-rule="evenodd" d="M6.33321 3.18929C6.36709 3.22665 6.41469 3.24915 6.46513 3.24915L9.02916 3.24915C9.08721 3.24915 9.12842 3.1926 9.10927 3.1378C8.92832 2.6198 8.65896 2.14328 8.31928 1.72633C8.2874 1.68719 8.23935 1.66504 8.18888 1.66504L1.18149 1.66504C1.13101 1.66504 1.08296 1.68719 1.05108 1.72633C0.711401 2.14328 0.442044 2.6198 0.261093 3.1378C0.241948 3.1926 0.283156 3.24915 0.341209 3.24915L2.90524 3.24915C2.95568 3.24915 3.00328 3.22665 3.03717 3.18929C3.44413 2.74065 4.03175 2.4589 4.68519 2.4589C5.33862 2.4589 5.92625 2.74065 6.33321 3.18929Z" fill="white" fill-opacity="0.54"/>
<path fill-rule="evenodd" clip-rule="evenodd" d="M6.89016 5.37017C6.84657 5.37017 6.81562 5.32764 6.82737 5.28566C6.88083 5.0946 6.90941 4.89314 6.90941 4.68501C6.90941 4.39213 6.85281 4.11247 6.74994 3.85637C6.73253 3.81302 6.76374 3.76465 6.81046 3.76465L9.22696 3.76465C9.25759 3.76465 9.28401 3.78627 9.28965 3.81638C9.34243 4.09788 9.37004 4.38826 9.37004 4.68508C9.37004 4.89877 9.35573 5.10911 9.32802 5.31521C9.32378 5.3468 9.29668 5.37017 9.26481 5.37017L6.89016 5.37017ZM2.54267 5.28566C2.55441 5.32764 2.52347 5.37017 2.47988 5.37017L0.105229 5.37017C0.0733567 5.37017 0.0462589 5.3468 0.0420124 5.31521C0.014306 5.10911 0 4.89877 0 4.68508C0 4.38826 0.0276034 4.09788 0.0803833 3.81638C0.086028 3.78627 0.112443 3.76465 0.143074 3.76465L2.55958 3.76465C2.6063 3.76465 2.63751 3.81302 2.62009 3.85637C2.51723 4.11247 2.46062 4.39213 2.46062 4.68501C2.46062 4.89314 2.48921 5.0946 2.54267 5.28566Z" fill="white" fill-opacity="0.54"/>
</svg>
